<svg width="100" height="100" viewBox="0 0 100 100" fill="none" xmlns="http://www.w3.org/2000/svg">
<rect x="50" y="50" width="50" height="50" fill="#305FAD"/>
<circle cx="50" cy="50" r="50" fill="#305FAD"/>
<path d="M59.375 87.5H40.625C38.9679 87.4983 37.3792 86.8393 36.2074 85.6676C35.0357 84.4958 34.3767 82.9071 34.375 81.25V65.625H18.75C17.0929 65.6233 15.5042 64.9643 14.3324 63.7926C13.1607 62.6208 12.5017 61.0321 12.5 59.375V40.625C12.5017 38.9679 13.1607 37.3792 14.3324 36.2074C15.5042 35.0357 17.0929 34.3767 18.75 34.375H34.375V18.75C34.3767 17.0929 35.0357 15.5042 36.2074 14.3324C37.3792 13.1607 38.9679 12.5017 40.625 12.5H59.375C61.0321 12.5017 62.6208 13.1607 63.7926 14.3324C64.9643 15.5042 65.6233 17.0929 65.625 18.75V34.375H81.25C82.9071 34.3767 84.4958 35.0357 85.6676 36.2074C86.8393 37.3792 87.4983 38.9679 87.5 40.625V59.375C87.4975 61.0318 86.8382 62.6201 85.6667 63.7917C84.4951 64.9632 82.9068 65.6225 81.25 65.625H65.625V81.25C65.6225 82.9068 64.9632 84.4951 63.7917 85.6667C62.6201 86.8382 61.0318 87.4975 59.375 87.5ZM18.75 40.625V59.375H40.625V81.25H59.375V59.375H81.25V40.625H59.375V18.75H40.625V40.625H18.75Z" fill="white"/>
<path d="M59.375 87.5H40.625C38.9679 87.4983 37.3792 86.8393 36.2074 85.6676C35.0357 84.4958 34.3767 82.9071 34.375 81.25V65.625H18.75C17.0929 65.6233 15.5042 64.9643 14.3324 63.7926C13.1607 62.6208 12.5017 61.0321 12.5 59.375V40.625C12.5017 38.9679 13.1607 37.3792 14.3324 36.2074C15.5042 35.0357 17.0929 34.3767 18.75 34.375H34.375V18.75C34.3767 17.0929 35.0357 15.5042 36.2074 14.3324C37.3792 13.1607 38.9679 12.5017 40.625 12.5H59.375C61.0321 12.5017 62.6208 13.1607 63.7926 14.3324C64.9643 15.5042 65.6233 17.0929 65.625 18.75V34.375H81.25C82.9071 34.3767 84.4958 35.0357 85.6676 36.2074C86.8393 37.3792 87.4983 38.9679 87.5 40.625V59.375C87.4975 61.0318 86.8382 62.6201 85.6667 63.7917C84.4951 64.9632 82.9068 65.6225 81.25 65.625H65.625V81.25C65.6225 82.9068 64.9632 84.4951 63.7917 85.6667C62.6201 86.8382 61.0318 87.4975 59.375 87.5ZM18.75 40.625V59.375H40.625V81.25H59.375V59.375H81.25V40.625H59.375V18.75H40.625V40.625H18.75Z" fill="white"/>
</svg>
