<svg version="1.1" id="Layer_1_1_" xmlns="http://www.w3.org/2000/svg" xmlns:xlink="http://www.w3.org/1999/xlink" x="0px" y="0px" viewBox="0 0 64 64" style="enable-background:new 0 0 64 64;" xml:space="preserve">
<g>
</g>
<path d="M12.572,7.356c-0.97,1.351-1.502,2.96-1.502,4.644v2c0,4.411,3.589,8,8,8c4.411,0,8-3.589,8-8v-2
	c0-1.409-0.382-2.801-1.019-3.906C26.054,8.062,26.07,8.033,26.07,8c0-3.86-3.14-7-7-7h-8c-0.552,0-1,0.448-1,1
	C10.07,4.148,11.044,6.071,12.572,7.356z M17.07,9h7.218c0.489,0.806,0.782,1.911,0.782,3v2c0,0.487-0.065,0.958-0.175,1.411
	l-1.118-1.118C23.59,14.106,23.335,14,23.07,14h-8c-0.265,0-0.52,0.106-0.707,0.293l-1.118,1.118
	c-0.11-0.454-0.175-0.924-0.175-1.411v-2c0-1.305,0.421-2.556,1.198-3.59C15.127,8.787,16.073,9,17.07,9z M19.07,20
	c-2.059,0-3.878-1.043-4.959-2.627L15.484,16h7.172l1.373,1.373C22.948,18.957,21.129,20,19.07,20z M19.07,3
	c2.415,0,4.435,1.721,4.899,4H17.07c-0.267,0-0.526-0.029-0.781-0.069c-0.096-0.016-0.191-0.037-0.286-0.058
	c-0.155-0.034-0.307-0.076-0.457-0.124c-0.108-0.035-0.216-0.07-0.322-0.112c-0.137-0.055-0.268-0.121-0.399-0.187
	c-0.098-0.049-0.198-0.092-0.293-0.148C13.336,5.593,12.457,4.404,12.171,3H19.07z" id="id_101" style="fill: rgb(214, 214, 214);"></path>
<circle cx="19.07" cy="29" r="1" id="id_102" style="fill: rgb(214, 214, 214);"></circle>
<circle cx="19.07" cy="33" r="1" id="id_103" style="fill: rgb(214, 214, 214);"></circle>
<circle cx="19.07" cy="37" r="1" id="id_104" style="fill: rgb(214, 214, 214);"></circle>
<path d="M53.469,14.97c-2.057-0.204-3.896-1.495-4.799-3.369c-0.152-0.314-0.456-0.527-0.804-0.561
	c-0.523-0.052-1.069-0.052-1.591,0c-0.348,0.034-0.652,0.247-0.804,0.561c-0.904,1.874-2.743,3.165-4.8,3.369
	c-0.347,0.034-0.65,0.247-0.802,0.56c-0.53,1.098-0.799,2.266-0.799,3.47v2c0,4.411,3.589,8,8,8c4.411,0,8-3.589,8-8v-2
	c0-1.205-0.269-2.372-0.799-3.47C54.119,15.216,53.816,15.004,53.469,14.97z M53.07,21c0,3.309-2.691,6-6,6c-3.309,0-6-2.691-6-6v-2
	c0-0.729,0.132-1.441,0.394-2.122C43.769,16.468,45.811,15,46.991,13c0.053,0,0.105,0,0.159,0c1.179,2,3.221,3.468,5.527,3.878
	c0.261,0.682,0.394,1.394,0.394,2.122V21z" id="id_105" style="fill: rgb(214, 214, 214);"></path>
<path d="M54.07,31h-14c-2.757,0-5,2.243-5,5h2c0-1.654,1.346-3,3-3h1v4c0,3.309,2.691,6,6,6c3.309,0,6-2.691,6-6v-4h1
	c1.654,0,3,1.346,3,3v27h2V36C59.07,33.243,56.827,31,54.07,31z M51.07,37c0,2.206-1.794,4-4,4c-2.206,0-4-1.794-4-4v-4h8V37z" id="id_106" style="fill: rgb(214, 214, 214);"></path>
<path d="M38.07,18c0-4.962,4.038-9,9-9c4.962,0,9,4.038,9,9v11h2V18c0-6.065-4.935-11-11-11c-6.065,0-11,4.935-11,11v11h2V18z" id="id_107" style="fill: rgb(214, 214, 214);"></path>
<path d="M35.07,52h-10c-2.757,0-5,2.243-5,5v6h2v-6c0-1.654,1.346-3,3-3h1.142c0.447,1.721,2,3,3.858,3c1.858,0,3.411-1.279,3.858-3
	h1.142c1.654,0,3,1.346,3,3v6h2v-6C40.07,54.243,37.827,52,35.07,52z M30.07,55c-0.737,0-1.375-0.405-1.722-1h3.443
	C31.445,54.595,30.807,55,30.07,55z" id="id_108" style="fill: rgb(214, 214, 214);"></path>
<path d="M20.363,40.293l-1.293,1.293l-5-5V26h10v4h2v-4h2c1.654,0,3,1.346,3,3v6.08c-0.328-0.047-0.66-0.08-1-0.08
	c-1.654,0-3-1.346-3-3h-2c0,1.524,0.7,2.874,1.779,3.792c-0.096,0.05-0.189,0.103-0.282,0.157C25.152,35.708,24.07,34.482,24.07,33
	h-2c0,1.93,1.111,3.589,2.717,4.422C23.72,38.651,23.07,40.249,23.07,42v2c0,3.86,3.14,7,7,7c3.86,0,7-3.14,7-7v-2
	c0-2.785-1.639-5.189-4-6.315V29c0-2.757-2.243-5-5-5h-18c-2.757,0-5,2.243-5,5v34h2V29c0-1.654,1.346-3,3-3h2v11
	c0,0.265,0.105,0.52,0.293,0.707l6,6C18.558,43.902,18.814,44,19.07,44c0.256,0,0.512-0.098,0.707-0.293l2-2L20.363,40.293z
	 M35.07,42v2c0,2.757-2.243,5-5,5c-2.757,0-5-2.243-5-5v-2c0-2.757,2.243-5,5-5C32.827,37,35.07,39.243,35.07,42z" id="id_109" style="fill: rgb(214, 214, 214);"></path>
</svg>