<svg width="338" height="100" viewBox="0 0 338 100" fill="none" xmlns="http://www.w3.org/2000/svg">
<path d="M24.3217 71.2402C24.0482 73.9746 22.5443 75.4557 19.81 75.6836C18.5339 75.6836 17.4174 75.2734 16.4604 74.4531C15.5489 73.5872 15.0932 72.5163 15.0932 71.2402V38.9746C15.1387 37.6986 15.6173 36.6504 16.5287 35.8301C17.4402 34.9642 18.5339 34.5312 19.81 34.5312H48.5209C52.5313 34.668 55.5619 35.5566 57.6127 37.1973C59.6635 38.7923 61.1446 40.6152 62.0561 42.666C62.9675 44.7168 63.4232 46.7904 63.4232 48.8867C63.4232 51.0742 62.9675 53.1934 62.0561 55.2441C61.1902 57.2949 59.709 59.1406 57.6127 60.7812C55.5619 62.3763 52.9415 63.151 49.7514 63.1055H32.5248C31.2488 63.1055 30.1778 62.6497 29.3119 61.7383C28.4005 60.8724 27.9447 59.8014 27.9447 58.5254C27.9447 57.2493 28.3777 56.1784 29.2436 55.3125C30.155 54.401 31.2488 53.9453 32.5248 53.9453H50.1615C51.0274 53.9453 51.7338 53.6719 52.2807 53.125C52.8731 52.5326 53.3061 51.8717 53.5795 51.1426C53.8529 50.3678 53.9896 49.5931 53.9896 48.8184C53.9896 48.0892 53.8529 47.36 53.5795 46.6309C53.3061 45.8561 52.8731 45.1953 52.2807 44.6484C51.7338 44.056 51.0274 43.737 50.1615 43.6914H26.099C24.9141 43.737 24.3217 44.3294 24.3217 45.4688V71.2402ZM105.278 34.5312C107.603 34.5768 109.676 35.306 111.499 36.7188C113.322 38.1315 114.78 39.8177 115.874 41.7773C117.013 43.737 117.856 45.8105 118.403 47.998C118.95 50.1855 119.224 52.4186 119.224 54.6973C119.224 57.7051 118.745 60.6673 117.788 63.584C116.877 66.4551 115.35 69.0072 113.208 71.2402C111.112 73.4733 108.468 74.681 105.278 74.8633H81.4209C78.2308 74.7266 75.5648 73.5417 73.4229 71.3086C71.2809 69.0755 69.7542 66.5007 68.8428 63.584C67.9769 60.6673 67.5439 57.7051 67.5439 54.6973C67.5439 51.6895 67.9997 48.75 68.9111 45.8789C69.8226 42.9622 71.3265 40.3874 73.4229 38.1543C75.5648 35.8757 78.2308 34.668 81.4209 34.5312H82.7197H103.979H105.278ZM102.954 65.7031C104.686 65.612 106.121 64.974 107.261 63.7891C108.446 62.5586 109.289 61.1458 109.79 59.5508C110.291 57.9557 110.542 56.3379 110.542 54.6973C110.542 53.0566 110.269 51.4616 109.722 49.9121C109.22 48.3171 108.4 46.9043 107.261 45.6738C106.121 44.4434 104.686 43.7826 102.954 43.6914H83.54C81.8083 43.7826 80.3727 44.4434 79.2334 45.6738C78.0941 46.9043 77.251 48.3171 76.7041 49.9121C76.2028 51.4616 75.9521 53.0566 75.9521 54.6973C75.9521 56.3379 76.2028 57.9557 76.7041 59.5508C77.2054 61.1458 78.0257 62.5586 79.165 63.7891C80.3499 64.974 81.8083 65.612 83.54 65.7031H102.954ZM129.155 33.4375C130.431 33.4375 131.525 33.8704 132.436 34.7363C133.348 35.5566 133.826 36.6048 133.872 37.8809V54.3555C133.826 56.224 133.94 57.9557 134.213 59.5508C134.532 61.1003 135.262 62.4902 136.401 63.7207C137.54 64.9512 138.976 65.612 140.708 65.7031H162.583C163.859 65.7487 164.907 66.2272 165.727 67.1387C166.593 68.0501 167.026 69.1439 167.026 70.4199C166.98 71.6504 166.525 72.6986 165.659 73.5645C164.838 74.3848 163.813 74.8177 162.583 74.8633H138.383C135.193 74.681 132.55 73.61 130.454 71.6504C128.403 69.6452 126.922 67.207 126.01 64.3359C125.144 61.4648 124.689 58.4115 124.643 55.1758V37.8809C124.689 36.6504 125.144 35.625 126.01 34.8047C126.876 33.9388 127.924 33.4831 129.155 33.4375Z" fill="#305FAD"/>
<path d="M189.773 32.6855C191.368 32.6855 192.917 32.959 194.421 33.5059C195.971 34.0527 197.452 34.8503 198.865 35.8984C199.093 36.1263 199.343 36.3542 199.617 36.582C199.844 36.3542 200.095 36.1263 200.369 35.8984C201.781 34.8503 203.24 34.0527 204.744 33.5059C206.293 32.959 207.843 32.6855 209.392 32.6855C210.987 32.6855 212.537 32.959 214.04 33.5059C215.59 34.0527 217.048 34.873 218.415 35.9668C219.828 37.015 221.059 38.4277 222.107 40.2051C223.201 41.9824 223.747 44.1016 223.747 46.5625V71.2402C223.474 73.9746 221.97 75.4557 219.236 75.6836C217.96 75.6836 216.843 75.2734 215.886 74.4531C214.975 73.5872 214.519 72.5163 214.519 71.2402V47.1094C214.519 46.0156 214.314 45.1042 213.904 44.375C213.494 43.6003 213.038 43.0078 212.537 42.5977C212.035 42.1419 211.511 41.8229 210.964 41.6406C210.417 41.4128 209.871 41.2988 209.324 41.2988C208.777 41.2988 208.23 41.4128 207.683 41.6406C207.182 41.8229 206.68 42.1419 206.179 42.5977C205.678 43.0078 205.222 43.6003 204.812 44.375C204.402 45.1042 204.174 46.0156 204.128 47.1094V71.2402C203.855 73.9746 202.351 75.4557 199.617 75.6836C198.341 75.6836 197.224 75.2734 196.267 74.4531C195.356 73.5872 194.9 72.5163 194.9 71.2402V47.1094C194.9 46.0156 194.695 45.1042 194.285 44.375C193.874 43.6003 193.419 43.0078 192.917 42.5977C192.416 42.1419 191.892 41.8229 191.345 41.6406C190.798 41.4128 190.251 41.2988 189.704 41.2988C189.158 41.2988 188.611 41.4128 188.064 41.6406C187.563 41.8229 187.061 42.1419 186.56 42.5977C186.059 43.0078 185.603 43.6003 185.193 44.375C184.783 45.1042 184.555 46.0156 184.509 47.1094V71.2402C184.281 73.9746 182.8 75.4557 180.066 75.6836C178.79 75.6836 177.673 75.2734 176.716 74.4531C175.805 73.5872 175.349 72.5163 175.349 71.2402V46.5625C175.44 44.1016 176.01 41.9824 177.058 40.2051C178.106 38.4277 179.337 37.015 180.749 35.9668C182.162 34.873 183.621 34.0527 185.124 33.5059C186.674 32.959 188.223 32.6855 189.773 32.6855ZM242.976 34.5312H246.12H269.362C270.638 34.5768 271.687 35.0553 272.507 35.9668C273.373 36.8783 273.806 37.972 273.806 39.248C273.578 41.9824 272.097 43.4635 269.362 43.6914H245.3C243.568 43.7826 242.132 44.4434 240.993 45.6738C239.854 46.9043 239.011 48.3171 238.464 49.9121C237.963 51.4616 237.712 53.0566 237.712 54.6973C237.712 56.3379 237.963 57.9557 238.464 59.5508C239.011 61.1003 239.854 62.4902 240.993 63.7207C242.132 64.9512 243.568 65.612 245.3 65.7031H269.362C270.638 65.7487 271.687 66.2272 272.507 67.1387C273.373 68.0501 273.806 69.1439 273.806 70.4199C273.76 71.6504 273.304 72.6986 272.438 73.5645C271.618 74.3848 270.593 74.8177 269.362 74.8633H244.274H242.976C239.785 74.681 237.142 73.4733 235.046 71.2402C232.995 68.9616 231.514 66.3867 230.603 63.5156C229.737 60.6445 229.304 57.7051 229.304 54.6973C229.304 51.6895 229.759 48.75 230.671 45.8789C231.582 43.0078 233.063 40.4557 235.114 38.2227C237.165 35.944 239.785 34.7135 242.976 34.5312ZM273.669 54.4238C273.669 55.6999 273.213 56.7708 272.302 57.6367C271.436 58.5482 270.365 59.0039 269.089 59.0039H248.444C247.168 59.0039 246.075 58.571 245.163 57.7051C244.297 56.7936 243.864 55.6999 243.864 54.4238C243.864 53.1478 244.297 52.054 245.163 51.1426C246.075 50.2767 247.168 49.8438 248.444 49.8438H269.089C270.365 49.8438 271.436 50.2995 272.302 51.2109C273.213 52.0768 273.669 53.1478 273.669 54.4238ZM308.21 34.5312C311.4 34.7135 314.02 35.944 316.071 38.2227C318.122 40.4557 319.603 43.0078 320.514 45.8789C321.426 48.75 321.881 51.6895 321.881 54.6973C321.881 57.7051 321.426 60.6445 320.514 63.5156C319.648 66.3867 318.167 68.9616 316.071 71.2402C314.02 73.4733 311.4 74.681 308.21 74.8633H283.053C281.823 74.8177 280.775 74.3848 279.909 73.5645C279.088 72.6986 278.656 71.6504 278.61 70.4199V53.4668C278.656 52.1908 279.134 51.1426 280.046 50.3223C280.957 49.4564 282.051 49.0234 283.327 49.0234C284.557 49.069 285.605 49.5247 286.471 50.3906C287.337 51.2109 287.793 52.2363 287.838 53.4668V63.8574C287.838 65.0879 288.476 65.7031 289.753 65.7031H305.885C307.617 65.612 309.053 64.9512 310.192 63.7207C311.331 62.4902 312.152 61.1003 312.653 59.5508C313.2 57.9557 313.473 56.3379 313.473 54.6973C313.473 53.0566 313.2 51.4616 312.653 49.9121C312.152 48.3171 311.331 46.9043 310.192 45.6738C309.053 44.4434 307.617 43.7826 305.885 43.6914H283.053C280.319 43.4635 278.838 41.9824 278.61 39.248C278.61 37.972 279.02 36.8783 279.84 35.9668C280.706 35.0553 281.777 34.5768 283.053 34.5312H308.21Z" fill="#305FAD"/>
</svg>
