<?xml version="1.0" encoding="UTF-8" standalone="no"?>
<!-- Created with Inkscape (http://www.inkscape.org/) -->

<svg
   width="58.814491mm"
   height="58.814499mm"
   viewBox="0 0 58.814491 58.814499"
   version="1.1"
   id="svg680"
   xmlns:inkscape="http://www.inkscape.org/namespaces/inkscape"
   xmlns:sodipodi="http://sodipodi.sourceforge.net/DTD/sodipodi-0.dtd"
   xmlns="http://www.w3.org/2000/svg"
   xmlns:svg="http://www.w3.org/2000/svg">
  <sodipodi:namedview
     id="namedview682"
     pagecolor="#ffffff"
     bordercolor="#000000"
     borderopacity="0.25"
     inkscape:showpageshadow="2"
     inkscape:pageopacity="0.0"
     inkscape:pagecheckerboard="0"
     inkscape:deskcolor="#d1d1d1"
     inkscape:document-units="mm"
     showgrid="false"
     inkscape:zoom="1.7260913"
     inkscape:cx="396.85039"
     inkscape:cy="656.39634"
     inkscape:window-width="1920"
     inkscape:window-height="1017"
     inkscape:window-x="-8"
     inkscape:window-y="-8"
     inkscape:window-maximized="1"
     inkscape:current-layer="g917" />
  <defs
     id="defs677" />
  <g
     inkscape:label="Warstwa 1"
     inkscape:groupmode="layer"
     id="layer1"
     transform="translate(-72.469476,-150.25904)">
    <g
       id="g708"
       transform="translate(-1.7361594,47.3114)"
       inkscape:connector-avoid="true">
      <g
         id="g3067">
        <path
           id="path773"
           style="fill:#ffffff;stroke-width:0.410816"
           d="m 101.87699,150.25905 a 29.407257,29.407257 0 0 0 -29.407512,29.40699 29.407257,29.407257 0 0 0 29.407512,29.4075 29.407257,29.407257 0 0 0 29.40699,-29.4075 29.407257,29.407257 0 0 0 -29.40699,-29.40699 z m -20.379639,21.24366 h 5.719548 l 6.010485,8.58294 v -5.54488 c 0,-0.9585 -0.115797,-1.60787 -0.355017,-1.94407 -0.324659,-0.45614 -0.874567,-0.6748 -1.642277,-0.65681 v -0.43718 h 4.569747 v 0.43718 c -0.584979,0.0843 -0.979266,0.19571 -1.177706,0.33435 -0.201049,0.13864 -0.357965,0.3617 -0.470255,0.67179 -0.11232,0.31044 -0.166915,0.8412 -0.166915,1.59474 v 13.28911 h -0.347266 l -9.353951,-12.91342 v 9.77046 c 0,0.91902 0.181464,1.53836 0.545703,1.85932 0.36435,0.32096 0.781073,0.48162 1.248503,0.48162 h 0.326078 v 0.43718 h -4.906677 v -0.43718 c 0.762489,-0.006 1.292895,-0.18635 1.593184,-0.53898 0.29763,-0.35264 0.449069,-0.95529 0.449069,-1.80196 v -11.26443 l -0.297657,-0.42478 c -0.292409,-0.42193 -0.551153,-0.70244 -0.775663,-0.83509 -0.22461,-0.13264 -0.545993,-0.20792 -0.968933,-0.22273 z m 15.099337,0.005 h 12.886032 v 4.5806 h -0.42839 c -0.0737,-1.08056 -0.32522,-1.86273 -0.73691,-2.40037 -0.41169,-0.53728 -0.97518,-0.89424 -1.73013,-1.09709 -0.48612,-0.13017 -1.48493,-0.16629 -2.70836,-0.16382 l -0.7798,0.002 0.009,4.65036 0.31471,-0.5519 c 0.37359,-0.46355 0.49163,-0.67442 1.02009,-0.94465 0.52564,-0.26882 1.31813,-0.35877 2.0004,0.27906 0.25715,0.24024 0.59468,0.79308 0.66559,1.40198 0.0596,0.63711 -0.007,1.14013 -0.22324,1.72186 -0.21201,0.74859 -0.90218,1.58221 -1.35444,2.03553 -0.22649,0.22684 -0.70825,0.71368 -1.35031,1.13843 l -1.10381,0.73071 c 0.003,0.6204 -0.024,0.21763 0.01,1.85983 0.0173,0.83823 0.0229,1.09165 0.0589,1.31517 0.0303,0.19086 0.0705,0.34638 0.30024,0.56947 0.1524,0.14771 0.37848,0.35694 0.68575,0.39843 h 0.91157 v 0.43718 h -8.446512 v -0.43718 h 0.507462 c 0.44662,0 0.748423,-0.10455 0.981853,-0.29611 0.204355,-0.16799 0.295751,-0.32388 0.359151,-0.62787 0.0511,-0.24472 0.07351,-0.54984 0.07441,-1.34823 l 0.01499,-10.39369 c 10e-4,-0.89039 -0.0082,-1.38561 -0.07648,-1.59163 -0.0715,-0.21696 -0.16988,-0.36047 -0.407727,-0.56896 -0.20905,-0.18345 -0.514046,-0.26148 -0.946196,-0.26148 h -0.507462 z m 13.970202,0.009 h 10.87789 l -6.85384,15.03784 1.39216,-0.0134 c 1.23437,-0.0121 2.11639,-0.0785 2.6138,-0.25632 0.79937,-0.2861 1.51266,-0.81099 2.09651,-1.56424 0.58385,-0.7535 0.97674,-1.7721 1.19476,-3.04323 h 0.36793 l -0.53175,5.79551 h -12.68036 l 6.91121,-15.089 h -0.80719 c -0.79305,0 -1.31234,0.0299 -1.56528,0.0842 -0.47272,0.10124 -0.91749,0.30003 -1.33377,0.60306 -0.41593,0.29987 -0.76162,0.69846 -1.03714,1.19941 -0.27305,0.50094 -0.48865,1.13377 -0.64493,1.89859 h -0.37413 z m -9.6268,3.84215 c -0.15132,-0.004 -0.301,0.011 -0.44287,0.0393 -0.666848,0.13335 -1.31983,0.83677 -1.45572,1.63969 -0.14827,0.87665 -0.0064,1.60496 0.290421,2.26395 0.696739,1.54657 2.663259,3.0577 3.746539,3.58634 l 0.031,-5.63635 c -0.21413,-0.52105 -0.68989,-1.02911 -0.90227,-1.29087 -0.34168,-0.42153 -0.81315,-0.59133 -1.26711,-0.60203 z"
           transform="translate(1.7361594,-47.3114)" />
      </g>
    </g>
  </g>
</svg>
